name C:/MyDriveSym/Projects/mobilecap/Data\Session20210830_0002\mocap\ForceDataProcessed\walkingTS1_forces.mot
datacolumns 19
datarows 17
range 0.35950000 0.36750000
endheader 
time	R_ground_force_vx	R_ground_force_vy	R_ground_force_vz	R_ground_force_px	R_ground_force_py	R_ground_force_pz	R_ground_torque_x	R_ground_torque_y	R_ground_torque_z	L_ground_force_vx	L_ground_force_vy	L_ground_force_vz	L_ground_force_px	L_ground_force_py	L_ground_force_pz	L_ground_torque_x	L_ground_torque_y	L_ground_torque_z	
          0.35950000	        -22.82249100	        609.19214600	        -15.36866700	          0.27782600	          0.00600000	         -0.16095200	          0.00000000	         -5.31259700	          0.00000000	          0.00000000	          0.00000000	          0.00000000	          0.72237200	          0.00000000	         -0.22759900	          0.00000000	          0.00000000	          0.00000000	
          0.36000000	        -22.66360000	        609.52864300	        -15.43959800	          0.27802300	          0.00600000	         -0.16093600	          0.00000000	         -5.32739500	          0.00000000	          0.00000000	          0.00000000	          0.00000000	          0.72237200	          0.00000000	         -0.22759900	          0.00000000	          0.00000000	          0.00000000	
          0.36050000	        -22.50471000	        609.86989000	        -15.51169300	          0.27821900	          0.00600000	         -0.16092100	          0.00000000	         -5.34213400	          0.00000000	          0.00000000	          0.00000000	          0.00000000	          0.72237200	          0.00000000	         -0.22759900	          0.00000000	          0.00000000	          0.00000000	
          0.36100000	        -22.34582000	        610.21588400	        -15.58494600	          0.27841600	          0.00600000	         -0.16090700	          0.00000000	         -5.35681300	          0.00000000	          0.00000000	          0.00000000	          0.00000000	          0.72237200	          0.00000000	         -0.22759900	          0.00000000	          0.00000000	          0.00000000	
          0.36150000	        -22.18693100	        610.56662300	        -15.65935000	          0.27861200	          0.00600000	         -0.16089200	          0.00000000	         -5.37143300	          0.00000000	          0.00000000	          0.00000000	          0.00000000	          0.72237200	          0.00000000	         -0.22759900	          0.00000000	          0.00000000	          0.00000000	
          0.36200000	        -22.02804400	        610.92210300	        -15.73490200	          0.27880800	          0.00600000	         -0.16087700	          0.00000000	         -5.38599200	          0.00000000	          0.00000000	          0.00000000	          0.00000000	          0.72237200	          0.00000000	         -0.22759900	          0.00000000	          0.00000000	          0.00000000	
          0.36250000	        -21.86915900	        611.28232000	        -15.81159400	          0.27900400	          0.00600000	         -0.16086300	          0.00000000	         -5.40048900	          0.00000000	          0.00000000	          0.00000000	          0.00000000	          0.72237200	          0.00000000	         -0.22759900	          0.00000000	          0.00000000	          0.00000000	
          0.36300000	        -21.71027500	        611.64727200	        -15.88942200	          0.27920000	          0.00600000	         -0.16084800	          0.00000000	         -5.41492400	          0.00000000	          0.00000000	          0.00000000	          0.00000000	          0.72237200	          0.00000000	         -0.22759900	          0.00000000	          0.00000000	          0.00000000	
          0.36350000	        -21.55139400	        612.01695400	        -15.96837900	          0.27939600	          0.00600000	         -0.16083400	          0.00000000	         -5.42929700	          0.00000000	          0.00000000	          0.00000000	          0.00000000	          0.72237200	          0.00000000	         -0.22759900	          0.00000000	          0.00000000	          0.00000000	
          0.36400000	        -21.39251500	        612.39136000	        -16.04845900	          0.27959200	          0.00600000	         -0.16081900	          0.00000000	         -5.44360500	          0.00000000	          0.00000000	          0.00000000	          0.00000000	          0.72237200	          0.00000000	         -0.22759900	          0.00000000	          0.00000000	          0.00000000	
          0.36450000	        -21.23364000	        612.77048700	        -16.12965800	          0.27978800	          0.00600000	         -0.16080500	          0.00000000	         -5.45784900	          0.00000000	          0.00000000	          0.00000000	          0.00000000	          0.72237200	          0.00000000	         -0.22759900	          0.00000000	          0.00000000	          0.00000000	
          0.36500000	        -21.07476800	        613.15432900	        -16.21196800	          0.27998400	          0.00600000	         -0.16079100	          0.00000000	         -5.47202800	          0.00000000	          0.00000000	          0.00000000	          0.00000000	          0.72237200	          0.00000000	         -0.22759900	          0.00000000	          0.00000000	          0.00000000	
          0.36550000	        -20.91590000	        613.54288100	        -16.29538400	          0.28017900	          0.00600000	         -0.16077700	          0.00000000	         -5.48614100	          0.00000000	          0.00000000	          0.00000000	          0.00000000	          0.72237200	          0.00000000	         -0.22759900	          0.00000000	          0.00000000	          0.00000000	
          0.36600000	        -20.75703600	        613.93613700	        -16.37990000	          0.28037500	          0.00600000	         -0.16076400	          0.00000000	         -5.50018700	          0.00000000	          0.00000000	          0.00000000	          0.00000000	          0.72237200	          0.00000000	         -0.22759900	          0.00000000	          0.00000000	          0.00000000	
          0.36650000	        -20.59817700	        614.33409000	        -16.46550900	          0.28057000	          0.00600000	         -0.16075000	          0.00000000	         -5.51416600	          0.00000000	          0.00000000	          0.00000000	          0.00000000	          0.72237200	          0.00000000	         -0.22759900	          0.00000000	          0.00000000	          0.00000000	
          0.36700000	        -20.43932300	        614.73673400	        -16.55220600	          0.28076500	          0.00600000	         -0.16073600	          0.00000000	         -5.52807600	          0.00000000	          0.00000000	          0.00000000	          0.00000000	          0.72237200	          0.00000000	         -0.22759900	          0.00000000	          0.00000000	          0.00000000	
          0.36750000	        -20.28047500	        615.14406200	        -16.63998400	          0.28096000	          0.00600000	         -0.16072300	          0.00000000	         -5.54191800	          0.00000000	          0.00000000	          0.00000000	          0.00000000	          0.72237200	          0.00000000	         -0.22759900	          0.00000000	          0.00000000	          0.00000000	
